<?xml version="1.0" encoding="UTF-8" standalone="no"?>
<!DOCTYPE svg PUBLIC "-//W3C//DTD SVG 1.1//EN"
 "http://www.w3.org/Graphics/SVG/1.1/DTD/svg11.dtd">
<!-- Generated by graphviz version 2.43.0 (0)
 -->
<!-- Title: %3 Pages: 1 -->
<svg width="1537pt" height="620pt"
 viewBox="0.00 0.00 1536.88 620.00" xmlns="http://www.w3.org/2000/svg" xmlns:xlink="http://www.w3.org/1999/xlink">
<g id="graph0" class="graph" transform="scale(1 1) rotate(0) translate(4 616)">
<title>%3</title>
<polygon fill="white" stroke="transparent" points="-4,4 -4,-616 1532.88,-616 1532.88,4 -4,4"/>
<!-- [root] aws_ebs_volume.disk1 (expand) -->
<g id="node1" class="node">
<title>[root] aws_ebs_volume.disk1 (expand)</title>
<polygon fill="none" stroke="black" points="613.88,-396 436.88,-396 436.88,-360 613.88,-360 613.88,-396"/>
<text text-anchor="middle" x="525.38" y="-374.3" font-family="Times,serif" font-size="14.00">aws_ebs_volume.disk1</text>
</g>
<!-- [root] aws_instance.myvm1 (expand) -->
<g id="node2" class="node">
<title>[root] aws_instance.myvm1 (expand)</title>
<polygon fill="none" stroke="black" points="556.38,-324 388.38,-324 388.38,-288 556.38,-288 556.38,-324"/>
<text text-anchor="middle" x="472.38" y="-302.3" font-family="Times,serif" font-size="14.00">aws_instance.myvm1</text>
</g>
<!-- [root] aws_ebs_volume.disk1 (expand)&#45;&gt;[root] aws_instance.myvm1 (expand) -->
<g id="edge1" class="edge">
<title>[root] aws_ebs_volume.disk1 (expand)&#45;&gt;[root] aws_instance.myvm1 (expand)</title>
<path fill="none" stroke="black" d="M512.28,-359.7C505.99,-351.39 498.33,-341.28 491.42,-332.14"/>
<polygon fill="black" stroke="black" points="494.16,-329.96 485.33,-324.1 488.58,-334.19 494.16,-329.96"/>
</g>
<!-- [root] aws_security_group.mysg (expand) -->
<g id="node7" class="node">
<title>[root] aws_security_group.mysg (expand)</title>
<polygon fill="none" stroke="black" points="756.38,-252 556.38,-252 556.38,-216 756.38,-216 756.38,-252"/>
<text text-anchor="middle" x="656.38" y="-230.3" font-family="Times,serif" font-size="14.00">aws_security_group.mysg</text>
</g>
<!-- [root] aws_instance.myvm1 (expand)&#45;&gt;[root] aws_security_group.mysg (expand) -->
<g id="edge2" class="edge">
<title>[root] aws_instance.myvm1 (expand)&#45;&gt;[root] aws_security_group.mysg (expand)</title>
<path fill="none" stroke="black" d="M517.39,-287.88C542.88,-278.18 574.95,-265.98 601.86,-255.74"/>
<polygon fill="black" stroke="black" points="603.41,-258.9 611.52,-252.07 600.93,-252.35 603.41,-258.9"/>
</g>
<!-- [root] aws_subnet.mysubnet (expand) -->
<g id="node8" class="node">
<title>[root] aws_subnet.mysubnet (expand)</title>
<polygon fill="none" stroke="black" points="537.88,-252 362.88,-252 362.88,-216 537.88,-216 537.88,-252"/>
<text text-anchor="middle" x="450.38" y="-230.3" font-family="Times,serif" font-size="14.00">aws_subnet.mysubnet</text>
</g>
<!-- [root] aws_instance.myvm1 (expand)&#45;&gt;[root] aws_subnet.mysubnet (expand) -->
<g id="edge3" class="edge">
<title>[root] aws_instance.myvm1 (expand)&#45;&gt;[root] aws_subnet.mysubnet (expand)</title>
<path fill="none" stroke="black" d="M466.94,-287.7C464.49,-279.9 461.54,-270.51 458.81,-261.83"/>
<polygon fill="black" stroke="black" points="462.09,-260.59 455.76,-252.1 455.42,-262.69 462.09,-260.59"/>
</g>
<!-- [root] aws_instance.myvm2 (expand) -->
<g id="node3" class="node">
<title>[root] aws_instance.myvm2 (expand)</title>
<polygon fill="none" stroke="black" points="742.38,-324 574.38,-324 574.38,-288 742.38,-288 742.38,-324"/>
<text text-anchor="middle" x="658.38" y="-302.3" font-family="Times,serif" font-size="14.00">aws_instance.myvm2</text>
</g>
<!-- [root] aws_instance.myvm2 (expand)&#45;&gt;[root] aws_security_group.mysg (expand) -->
<g id="edge4" class="edge">
<title>[root] aws_instance.myvm2 (expand)&#45;&gt;[root] aws_security_group.mysg (expand)</title>
<path fill="none" stroke="black" d="M657.89,-287.7C657.67,-279.98 657.4,-270.71 657.16,-262.11"/>
<polygon fill="black" stroke="black" points="660.65,-262 656.87,-252.1 653.66,-262.2 660.65,-262"/>
</g>
<!-- [root] aws_instance.myvm2 (expand)&#45;&gt;[root] aws_subnet.mysubnet (expand) -->
<g id="edge5" class="edge">
<title>[root] aws_instance.myvm2 (expand)&#45;&gt;[root] aws_subnet.mysubnet (expand)</title>
<path fill="none" stroke="black" d="M607.77,-287.97C578.58,-278.14 541.69,-265.73 510.97,-255.39"/>
<polygon fill="black" stroke="black" points="511.82,-251.98 501.23,-252.11 509.59,-258.62 511.82,-251.98"/>
</g>
<!-- [root] aws_internet_gateway.mygw (expand) -->
<g id="node4" class="node">
<title>[root] aws_internet_gateway.mygw (expand)</title>
<polygon fill="none" stroke="black" points="342.88,-252 121.88,-252 121.88,-216 342.88,-216 342.88,-252"/>
<text text-anchor="middle" x="232.38" y="-230.3" font-family="Times,serif" font-size="14.00">aws_internet_gateway.mygw</text>
</g>
<!-- [root] aws_vpc.myvpc (expand) -->
<g id="node10" class="node">
<title>[root] aws_vpc.myvpc (expand)</title>
<polygon fill="none" stroke="black" points="583.88,-180 456.88,-180 456.88,-144 583.88,-144 583.88,-180"/>
<text text-anchor="middle" x="520.38" y="-158.3" font-family="Times,serif" font-size="14.00">aws_vpc.myvpc</text>
</g>
<!-- [root] aws_internet_gateway.mygw (expand)&#45;&gt;[root] aws_vpc.myvpc (expand) -->
<g id="edge6" class="edge">
<title>[root] aws_internet_gateway.mygw (expand)&#45;&gt;[root] aws_vpc.myvpc (expand)</title>
<path fill="none" stroke="black" d="M302.47,-215.97C346.27,-205.32 402.6,-191.63 447.01,-180.83"/>
<polygon fill="black" stroke="black" points="447.99,-184.2 456.88,-178.44 446.33,-177.4 447.99,-184.2"/>
</g>
<!-- [root] aws_route_table.myroute1 (expand) -->
<g id="node5" class="node">
<title>[root] aws_route_table.myroute1 (expand)</title>
<polygon fill="none" stroke="black" points="332.38,-324 126.38,-324 126.38,-288 332.38,-288 332.38,-324"/>
<text text-anchor="middle" x="229.38" y="-302.3" font-family="Times,serif" font-size="14.00">aws_route_table.myroute1</text>
</g>
<!-- [root] aws_route_table.myroute1 (expand)&#45;&gt;[root] aws_internet_gateway.mygw (expand) -->
<g id="edge7" class="edge">
<title>[root] aws_route_table.myroute1 (expand)&#45;&gt;[root] aws_internet_gateway.mygw (expand)</title>
<path fill="none" stroke="black" d="M230.12,-287.7C230.45,-279.98 230.85,-270.71 231.22,-262.11"/>
<polygon fill="black" stroke="black" points="234.72,-262.25 231.65,-252.1 227.72,-261.95 234.72,-262.25"/>
</g>
<!-- [root] aws_route_table_association.myroute1_association (expand) -->
<g id="node6" class="node">
<title>[root] aws_route_table_association.myroute1_association (expand)</title>
<polygon fill="none" stroke="black" points="418.38,-396 40.38,-396 40.38,-360 418.38,-360 418.38,-396"/>
<text text-anchor="middle" x="229.38" y="-374.3" font-family="Times,serif" font-size="14.00">aws_route_table_association.myroute1_association</text>
</g>
<!-- [root] aws_route_table_association.myroute1_association (expand)&#45;&gt;[root] aws_route_table.myroute1 (expand) -->
<g id="edge8" class="edge">
<title>[root] aws_route_table_association.myroute1_association (expand)&#45;&gt;[root] aws_route_table.myroute1 (expand)</title>
<path fill="none" stroke="black" d="M229.38,-359.7C229.38,-351.98 229.38,-342.71 229.38,-334.11"/>
<polygon fill="black" stroke="black" points="232.88,-334.1 229.38,-324.1 225.88,-334.1 232.88,-334.1"/>
</g>
<!-- [root] aws_route_table_association.myroute1_association (expand)&#45;&gt;[root] aws_subnet.mysubnet (expand) -->
<g id="edge9" class="edge">
<title>[root] aws_route_table_association.myroute1_association (expand)&#45;&gt;[root] aws_subnet.mysubnet (expand)</title>
<path fill="none" stroke="black" d="M273.67,-359.9C295,-350.72 320.43,-338.34 341.38,-324 360.58,-310.86 361.59,-302.98 379.38,-288 391.52,-277.78 405.41,-267.18 417.67,-258.18"/>
<polygon fill="black" stroke="black" points="419.82,-260.94 425.85,-252.23 415.7,-255.28 419.82,-260.94"/>
</g>
<!-- [root] aws_security_group.mysg (expand)&#45;&gt;[root] aws_vpc.myvpc (expand) -->
<g id="edge10" class="edge">
<title>[root] aws_security_group.mysg (expand)&#45;&gt;[root] aws_vpc.myvpc (expand)</title>
<path fill="none" stroke="black" d="M623.11,-215.88C604.92,-206.51 582.19,-194.81 562.74,-184.8"/>
<polygon fill="black" stroke="black" points="564.27,-181.65 553.78,-180.19 561.07,-187.88 564.27,-181.65"/>
</g>
<!-- [root] aws_subnet.mysubnet (expand)&#45;&gt;[root] aws_vpc.myvpc (expand) -->
<g id="edge11" class="edge">
<title>[root] aws_subnet.mysubnet (expand)&#45;&gt;[root] aws_vpc.myvpc (expand)</title>
<path fill="none" stroke="black" d="M467.69,-215.7C476.25,-207.14 486.73,-196.66 496.08,-187.3"/>
<polygon fill="black" stroke="black" points="498.68,-189.65 503.28,-180.1 493.73,-184.7 498.68,-189.65"/>
</g>
<!-- [root] var.mycidrsub -->
<g id="node16" class="node">
<title>[root] var.mycidrsub</title>
<polygon fill="none" stroke="black" points="432.38,-180 320.38,-180 320.38,-144 438.38,-144 438.38,-174 432.38,-180"/>
<polyline fill="none" stroke="black" points="432.38,-180 432.38,-174 "/>
<polyline fill="none" stroke="black" points="438.38,-174 432.38,-174 "/>
<text text-anchor="middle" x="379.38" y="-158.3" font-family="Times,serif" font-size="14.00">var.mycidrsub</text>
</g>
<!-- [root] aws_subnet.mysubnet (expand)&#45;&gt;[root] var.mycidrsub -->
<g id="edge12" class="edge">
<title>[root] aws_subnet.mysubnet (expand)&#45;&gt;[root] var.mycidrsub</title>
<path fill="none" stroke="black" d="M432.83,-215.7C424.15,-207.14 413.52,-196.66 404.03,-187.3"/>
<polygon fill="black" stroke="black" points="406.31,-184.63 396.73,-180.1 401.39,-189.62 406.31,-184.63"/>
</g>
<!-- [root] aws_volume_attachment.disk1_att (expand) -->
<g id="node9" class="node">
<title>[root] aws_volume_attachment.disk1_att (expand)</title>
<polygon fill="none" stroke="black" points="620.88,-468 359.88,-468 359.88,-432 620.88,-432 620.88,-468"/>
<text text-anchor="middle" x="490.38" y="-446.3" font-family="Times,serif" font-size="14.00">aws_volume_attachment.disk1_att</text>
</g>
<!-- [root] aws_volume_attachment.disk1_att (expand)&#45;&gt;[root] aws_ebs_volume.disk1 (expand) -->
<g id="edge13" class="edge">
<title>[root] aws_volume_attachment.disk1_att (expand)&#45;&gt;[root] aws_ebs_volume.disk1 (expand)</title>
<path fill="none" stroke="black" d="M499.03,-431.7C503.02,-423.73 507.83,-414.1 512.25,-405.26"/>
<polygon fill="black" stroke="black" points="515.49,-406.61 516.83,-396.1 509.23,-403.48 515.49,-406.61"/>
</g>
<!-- [root] provider[&quot;registry.terraform.io/hashicorp/aws&quot;] -->
<g id="node12" class="node">
<title>[root] provider[&quot;registry.terraform.io/hashicorp/aws&quot;]</title>
<polygon fill="none" stroke="black" points="325.38,-108 0.12,-90 325.38,-72 650.65,-90 325.38,-108"/>
<text text-anchor="middle" x="325.38" y="-86.3" font-family="Times,serif" font-size="14.00">provider[&quot;registry.terraform.io/hashicorp/aws&quot;]</text>
</g>
<!-- [root] aws_vpc.myvpc (expand)&#45;&gt;[root] provider[&quot;registry.terraform.io/hashicorp/aws&quot;] -->
<g id="edge14" class="edge">
<title>[root] aws_vpc.myvpc (expand)&#45;&gt;[root] provider[&quot;registry.terraform.io/hashicorp/aws&quot;]</title>
<path fill="none" stroke="black" d="M472.68,-143.88C443.5,-133.4 406.2,-120.01 376.43,-109.33"/>
<polygon fill="black" stroke="black" points="377.24,-105.9 366.65,-105.81 374.88,-112.49 377.24,-105.9"/>
</g>
<!-- [root] var.mycidr -->
<g id="node15" class="node">
<title>[root] var.mycidr</title>
<polygon fill="none" stroke="black" points="754.38,-108 668.38,-108 668.38,-72 760.38,-72 760.38,-102 754.38,-108"/>
<polyline fill="none" stroke="black" points="754.38,-108 754.38,-102 "/>
<polyline fill="none" stroke="black" points="760.38,-102 754.38,-102 "/>
<text text-anchor="middle" x="714.38" y="-86.3" font-family="Times,serif" font-size="14.00">var.mycidr</text>
</g>
<!-- [root] aws_vpc.myvpc (expand)&#45;&gt;[root] var.mycidr -->
<g id="edge15" class="edge">
<title>[root] aws_vpc.myvpc (expand)&#45;&gt;[root] var.mycidr</title>
<path fill="none" stroke="black" d="M567.84,-143.88C595.25,-133.98 629.88,-121.49 658.59,-111.13"/>
<polygon fill="black" stroke="black" points="659.86,-114.39 668.08,-107.71 657.49,-107.81 659.86,-114.39"/>
</g>
<!-- [root] null_resource.test1 (expand) -->
<g id="node11" class="node">
<title>[root] null_resource.test1 (expand)</title>
<polygon fill="none" stroke="black" points="1169.38,-468 1015.38,-468 1015.38,-432 1169.38,-432 1169.38,-468"/>
<text text-anchor="middle" x="1092.38" y="-446.3" font-family="Times,serif" font-size="14.00">null_resource.test1</text>
</g>
<!-- [root] null_resource.test1 (expand)&#45;&gt;[root] aws_instance.myvm2 (expand) -->
<g id="edge16" class="edge">
<title>[root] null_resource.test1 (expand)&#45;&gt;[root] aws_instance.myvm2 (expand)</title>
<path fill="none" stroke="black" d="M1169.56,-444.87C1258.7,-437.4 1386.81,-416.7 1334.38,-360 1295.72,-318.19 929.31,-309.3 752.69,-307.46"/>
<polygon fill="black" stroke="black" points="752.66,-303.96 742.62,-307.36 752.59,-310.96 752.66,-303.96"/>
</g>
<!-- [root] provider[&quot;registry.terraform.io/hashicorp/null&quot;] -->
<g id="node13" class="node">
<title>[root] provider[&quot;registry.terraform.io/hashicorp/null&quot;]</title>
<polygon fill="none" stroke="black" points="1001.38,-396 676.96,-378 1001.38,-360 1325.81,-378 1001.38,-396"/>
<text text-anchor="middle" x="1001.38" y="-374.3" font-family="Times,serif" font-size="14.00">provider[&quot;registry.terraform.io/hashicorp/null&quot;]</text>
</g>
<!-- [root] null_resource.test1 (expand)&#45;&gt;[root] provider[&quot;registry.terraform.io/hashicorp/null&quot;] -->
<g id="edge17" class="edge">
<title>[root] null_resource.test1 (expand)&#45;&gt;[root] provider[&quot;registry.terraform.io/hashicorp/null&quot;]</title>
<path fill="none" stroke="black" d="M1069.89,-431.7C1057.88,-422.46 1042.98,-411 1030.15,-401.13"/>
<polygon fill="black" stroke="black" points="1032.12,-398.23 1022.06,-394.91 1027.85,-403.78 1032.12,-398.23"/>
</g>
<!-- [root] var.myaccesskey -->
<g id="node14" class="node">
<title>[root] var.myaccesskey</title>
<polygon fill="none" stroke="black" points="246.38,-36 116.38,-36 116.38,0 252.38,0 252.38,-30 246.38,-36"/>
<polyline fill="none" stroke="black" points="246.38,-36 246.38,-30 "/>
<polyline fill="none" stroke="black" points="252.38,-30 246.38,-30 "/>
<text text-anchor="middle" x="184.38" y="-14.3" font-family="Times,serif" font-size="14.00">var.myaccesskey</text>
</g>
<!-- [root] provider[&quot;registry.terraform.io/hashicorp/aws&quot;]&#45;&gt;[root] var.myaccesskey -->
<g id="edge21" class="edge">
<title>[root] provider[&quot;registry.terraform.io/hashicorp/aws&quot;]&#45;&gt;[root] var.myaccesskey</title>
<path fill="none" stroke="black" d="M294.44,-73.64C274.86,-63.92 249.27,-51.21 227.69,-40.5"/>
<polygon fill="black" stroke="black" points="229.23,-37.36 218.71,-36.04 226.11,-43.63 229.23,-37.36"/>
</g>
<!-- [root] var.myregion -->
<g id="node18" class="node">
<title>[root] var.myregion</title>
<polygon fill="none" stroke="black" points="374.38,-36 270.38,-36 270.38,0 380.38,0 380.38,-30 374.38,-36"/>
<polyline fill="none" stroke="black" points="374.38,-36 374.38,-30 "/>
<polyline fill="none" stroke="black" points="380.38,-30 374.38,-30 "/>
<text text-anchor="middle" x="325.38" y="-14.3" font-family="Times,serif" font-size="14.00">var.myregion</text>
</g>
<!-- [root] provider[&quot;registry.terraform.io/hashicorp/aws&quot;]&#45;&gt;[root] var.myregion -->
<g id="edge22" class="edge">
<title>[root] provider[&quot;registry.terraform.io/hashicorp/aws&quot;]&#45;&gt;[root] var.myregion</title>
<path fill="none" stroke="black" d="M325.38,-71.7C325.38,-63.98 325.38,-54.71 325.38,-46.11"/>
<polygon fill="black" stroke="black" points="328.88,-46.1 325.38,-36.1 321.88,-46.1 328.88,-46.1"/>
</g>
<!-- [root] var.mysecretkey -->
<g id="node19" class="node">
<title>[root] var.mysecretkey</title>
<polygon fill="none" stroke="black" points="526.38,-36 398.38,-36 398.38,0 532.38,0 532.38,-30 526.38,-36"/>
<polyline fill="none" stroke="black" points="526.38,-36 526.38,-30 "/>
<polyline fill="none" stroke="black" points="532.38,-30 526.38,-30 "/>
<text text-anchor="middle" x="465.38" y="-14.3" font-family="Times,serif" font-size="14.00">var.mysecretkey</text>
</g>
<!-- [root] provider[&quot;registry.terraform.io/hashicorp/aws&quot;]&#45;&gt;[root] var.mysecretkey -->
<g id="edge23" class="edge">
<title>[root] provider[&quot;registry.terraform.io/hashicorp/aws&quot;]&#45;&gt;[root] var.mysecretkey</title>
<path fill="none" stroke="black" d="M356.11,-73.64C375.46,-63.96 400.73,-51.33 422.1,-40.64"/>
<polygon fill="black" stroke="black" points="423.91,-43.65 431.29,-36.04 420.78,-37.39 423.91,-43.65"/>
</g>
<!-- [root] var.mycidrsub2 -->
<g id="node17" class="node">
<title>[root] var.mycidrsub2</title>
<polygon fill="none" stroke="black" points="1522.88,-540 1401.88,-540 1401.88,-504 1528.88,-504 1528.88,-534 1522.88,-540"/>
<polyline fill="none" stroke="black" points="1522.88,-540 1522.88,-534 "/>
<polyline fill="none" stroke="black" points="1528.88,-534 1522.88,-534 "/>
<text text-anchor="middle" x="1465.38" y="-518.3" font-family="Times,serif" font-size="14.00">var.mycidrsub2</text>
</g>
<!-- [root] provider[&quot;registry.terraform.io/hashicorp/aws&quot;] (close) -->
<g id="node20" class="node">
<title>[root] provider[&quot;registry.terraform.io/hashicorp/aws&quot;] (close)</title>
<ellipse fill="none" stroke="black" cx="490.38" cy="-522" rx="291.65" ry="18"/>
<text text-anchor="middle" x="490.38" y="-518.3" font-family="Times,serif" font-size="14.00">[root] provider[&quot;registry.terraform.io/hashicorp/aws&quot;] (close)</text>
</g>
<!-- [root] provider[&quot;registry.terraform.io/hashicorp/aws&quot;] (close)&#45;&gt;[root] aws_instance.myvm2 (expand) -->
<g id="edge18" class="edge">
<title>[root] provider[&quot;registry.terraform.io/hashicorp/aws&quot;] (close)&#45;&gt;[root] aws_instance.myvm2 (expand)</title>
<path fill="none" stroke="black" d="M574.76,-504.72C595.67,-496.86 616.15,-485.23 630.38,-468 661.83,-429.94 663.46,-369.24 661.28,-334.26"/>
<polygon fill="black" stroke="black" points="664.77,-333.98 660.51,-324.28 657.79,-334.52 664.77,-333.98"/>
</g>
<!-- [root] provider[&quot;registry.terraform.io/hashicorp/aws&quot;] (close)&#45;&gt;[root] aws_route_table_association.myroute1_association (expand) -->
<g id="edge19" class="edge">
<title>[root] provider[&quot;registry.terraform.io/hashicorp/aws&quot;] (close)&#45;&gt;[root] aws_route_table_association.myroute1_association (expand)</title>
<path fill="none" stroke="black" d="M436.77,-504.31C410.33,-495.14 378.39,-482.66 351.38,-468 316.96,-449.32 281.17,-422.13 257.33,-402.73"/>
<polygon fill="black" stroke="black" points="259.36,-399.87 249.41,-396.22 254.91,-405.28 259.36,-399.87"/>
</g>
<!-- [root] provider[&quot;registry.terraform.io/hashicorp/aws&quot;] (close)&#45;&gt;[root] aws_volume_attachment.disk1_att (expand) -->
<g id="edge20" class="edge">
<title>[root] provider[&quot;registry.terraform.io/hashicorp/aws&quot;] (close)&#45;&gt;[root] aws_volume_attachment.disk1_att (expand)</title>
<path fill="none" stroke="black" d="M490.38,-503.7C490.38,-495.98 490.38,-486.71 490.38,-478.11"/>
<polygon fill="black" stroke="black" points="493.88,-478.1 490.38,-468.1 486.88,-478.1 493.88,-478.1"/>
</g>
<!-- [root] provider[&quot;registry.terraform.io/hashicorp/null&quot;] (close) -->
<g id="node21" class="node">
<title>[root] provider[&quot;registry.terraform.io/hashicorp/null&quot;] (close)</title>
<ellipse fill="none" stroke="black" cx="1092.38" cy="-522" rx="291.65" ry="18"/>
<text text-anchor="middle" x="1092.38" y="-518.3" font-family="Times,serif" font-size="14.00">[root] provider[&quot;registry.terraform.io/hashicorp/null&quot;] (close)</text>
</g>
<!-- [root] provider[&quot;registry.terraform.io/hashicorp/null&quot;] (close)&#45;&gt;[root] null_resource.test1 (expand) -->
<g id="edge24" class="edge">
<title>[root] provider[&quot;registry.terraform.io/hashicorp/null&quot;] (close)&#45;&gt;[root] null_resource.test1 (expand)</title>
<path fill="none" stroke="black" d="M1092.38,-503.7C1092.38,-495.98 1092.38,-486.71 1092.38,-478.11"/>
<polygon fill="black" stroke="black" points="1095.88,-478.1 1092.38,-468.1 1088.88,-478.1 1095.88,-478.1"/>
</g>
<!-- [root] root -->
<g id="node22" class="node">
<title>[root] root</title>
<ellipse fill="none" stroke="black" cx="1092.38" cy="-594" rx="58.49" ry="18"/>
<text text-anchor="middle" x="1092.38" y="-590.3" font-family="Times,serif" font-size="14.00">[root] root</text>
</g>
<!-- [root] root&#45;&gt;[root] var.mycidrsub2 -->
<g id="edge27" class="edge">
<title>[root] root&#45;&gt;[root] var.mycidrsub2</title>
<path fill="none" stroke="black" d="M1143.15,-584.98C1201.07,-575.62 1298.84,-559.2 1391.96,-540.24"/>
<polygon fill="black" stroke="black" points="1392.73,-543.65 1401.82,-538.22 1391.32,-536.8 1392.73,-543.65"/>
</g>
<!-- [root] root&#45;&gt;[root] provider[&quot;registry.terraform.io/hashicorp/aws&quot;] (close) -->
<g id="edge25" class="edge">
<title>[root] root&#45;&gt;[root] provider[&quot;registry.terraform.io/hashicorp/aws&quot;] (close)</title>
<path fill="none" stroke="black" d="M1038.69,-586.76C947.76,-576.18 760.67,-554.43 630.47,-539.29"/>
<polygon fill="black" stroke="black" points="630.75,-535.8 620.41,-538.12 629.94,-542.75 630.75,-535.8"/>
</g>
<!-- [root] root&#45;&gt;[root] provider[&quot;registry.terraform.io/hashicorp/null&quot;] (close) -->
<g id="edge26" class="edge">
<title>[root] root&#45;&gt;[root] provider[&quot;registry.terraform.io/hashicorp/null&quot;] (close)</title>
<path fill="none" stroke="black" d="M1092.38,-575.7C1092.38,-567.98 1092.38,-558.71 1092.38,-550.11"/>
<polygon fill="black" stroke="black" points="1095.88,-550.1 1092.38,-540.1 1088.88,-550.1 1095.88,-550.1"/>
</g>
</g>
</svg>
